<mxfile host="app.diagrams.net" modified="2023-06-11T16:57:05.045Z" agent="Mozilla/5.0 (Windows NT 10.0; Win64; x64) AppleWebKit/537.36 (KHTML, like Gecko) Chrome/114.0.0.0 Safari/537.36" etag="zt4Id8JuSe2f5puRz4Hm" version="21.3.7" type="device">
  <diagram name="Page-1" id="Ik96WvWI8btMwHQZkEZQ">
    <mxGraphModel dx="312" dy="562" grid="1" gridSize="10" guides="1" tooltips="1" connect="1" arrows="1" fold="1" page="1" pageScale="1" pageWidth="850" pageHeight="1100" math="0" shadow="0">
      <root>
        <mxCell id="0" />
        <mxCell id="1" parent="0" />
        <mxCell id="Ul13ssPY8gjsLb9pURpF-3" value="&#xa;&lt;span style=&quot;color: rgb(240, 240, 240); font-family: Helvetica; font-size: 11px; font-style: normal; font-variant-ligatures: normal; font-variant-caps: normal; font-weight: 400; letter-spacing: normal; orphans: 2; text-align: center; text-indent: 0px; text-transform: none; widows: 2; word-spacing: 0px; -webkit-text-stroke-width: 0px; background-color: rgb(24, 20, 29); text-decoration-thickness: initial; text-decoration-style: initial; text-decoration-color: initial; float: none; display: inline !important;&quot;&gt;signal to start&lt;/span&gt;&#xa;&#xa;" style="edgeStyle=orthogonalEdgeStyle;rounded=0;orthogonalLoop=1;jettySize=auto;html=1;exitX=0.5;exitY=1;exitDx=0;exitDy=0;" edge="1" parent="1" source="Ul13ssPY8gjsLb9pURpF-1">
          <mxGeometry x="0.169" y="24" relative="1" as="geometry">
            <mxPoint x="425.33333333333337" y="230" as="targetPoint" />
            <mxPoint as="offset" />
          </mxGeometry>
        </mxCell>
        <mxCell id="Ul13ssPY8gjsLb9pURpF-7" value="&#xa;&lt;span style=&quot;color: rgb(240, 240, 240); font-family: Helvetica; font-size: 11px; font-style: normal; font-variant-ligatures: normal; font-variant-caps: normal; font-weight: 400; letter-spacing: normal; orphans: 2; text-align: center; text-indent: 0px; text-transform: none; widows: 2; word-spacing: 0px; -webkit-text-stroke-width: 0px; background-color: rgb(24, 20, 29); text-decoration-thickness: initial; text-decoration-style: initial; text-decoration-color: initial; float: none; display: inline !important;&quot;&gt;signal to start&lt;/span&gt;&#xa;&#xa;" style="edgeStyle=orthogonalEdgeStyle;rounded=0;orthogonalLoop=1;jettySize=auto;html=1;exitX=0.25;exitY=1;exitDx=0;exitDy=0;entryX=0.5;entryY=0;entryDx=0;entryDy=0;" edge="1" parent="1" source="Ul13ssPY8gjsLb9pURpF-1" target="Ul13ssPY8gjsLb9pURpF-6">
          <mxGeometry relative="1" as="geometry" />
        </mxCell>
        <mxCell id="Ul13ssPY8gjsLb9pURpF-8" value="signal to start" style="edgeStyle=orthogonalEdgeStyle;rounded=0;orthogonalLoop=1;jettySize=auto;html=1;exitX=0.75;exitY=1;exitDx=0;exitDy=0;entryX=0.5;entryY=0;entryDx=0;entryDy=0;" edge="1" parent="1" source="Ul13ssPY8gjsLb9pURpF-1" target="Ul13ssPY8gjsLb9pURpF-5">
          <mxGeometry relative="1" as="geometry">
            <Array as="points">
              <mxPoint x="470" y="110" />
              <mxPoint x="470" y="190" />
              <mxPoint x="660" y="190" />
            </Array>
          </mxGeometry>
        </mxCell>
        <mxCell id="Ul13ssPY8gjsLb9pURpF-1" value="Sensor Detects Motion" style="rounded=1;whiteSpace=wrap;html=1;" vertex="1" parent="1">
          <mxGeometry x="365" y="50" width="120" height="60" as="geometry" />
        </mxCell>
        <mxCell id="Ul13ssPY8gjsLb9pURpF-12" style="edgeStyle=orthogonalEdgeStyle;rounded=0;orthogonalLoop=1;jettySize=auto;html=1;exitX=0.5;exitY=1;exitDx=0;exitDy=0;" edge="1" parent="1" source="Ul13ssPY8gjsLb9pURpF-4">
          <mxGeometry relative="1" as="geometry">
            <mxPoint x="420.2222222222222" y="400" as="targetPoint" />
          </mxGeometry>
        </mxCell>
        <mxCell id="Ul13ssPY8gjsLb9pURpF-4" value="Steps detection starts" style="rounded=1;whiteSpace=wrap;html=1;" vertex="1" parent="1">
          <mxGeometry x="360" y="230" width="120" height="60" as="geometry" />
        </mxCell>
        <mxCell id="Ul13ssPY8gjsLb9pURpF-9" style="edgeStyle=orthogonalEdgeStyle;rounded=0;orthogonalLoop=1;jettySize=auto;html=1;exitX=0.5;exitY=1;exitDx=0;exitDy=0;" edge="1" parent="1" source="Ul13ssPY8gjsLb9pURpF-5">
          <mxGeometry relative="1" as="geometry">
            <mxPoint x="420" y="410" as="targetPoint" />
          </mxGeometry>
        </mxCell>
        <mxCell id="Ul13ssPY8gjsLb9pURpF-5" value="Temp detectin starts" style="rounded=1;whiteSpace=wrap;html=1;" vertex="1" parent="1">
          <mxGeometry x="600" y="230" width="120" height="60" as="geometry" />
        </mxCell>
        <mxCell id="Ul13ssPY8gjsLb9pURpF-11" style="edgeStyle=orthogonalEdgeStyle;rounded=0;orthogonalLoop=1;jettySize=auto;html=1;exitX=0.5;exitY=1;exitDx=0;exitDy=0;" edge="1" parent="1" source="Ul13ssPY8gjsLb9pURpF-6">
          <mxGeometry relative="1" as="geometry">
            <mxPoint x="420" y="410" as="targetPoint" />
          </mxGeometry>
        </mxCell>
        <mxCell id="Ul13ssPY8gjsLb9pURpF-6" value="Heart beam detection starts" style="rounded=1;whiteSpace=wrap;html=1;" vertex="1" parent="1">
          <mxGeometry x="140" y="230" width="120" height="60" as="geometry" />
        </mxCell>
        <mxCell id="Ul13ssPY8gjsLb9pURpF-17" style="edgeStyle=orthogonalEdgeStyle;rounded=0;orthogonalLoop=1;jettySize=auto;html=1;exitX=0.5;exitY=1;exitDx=0;exitDy=0;" edge="1" parent="1" source="Ul13ssPY8gjsLb9pURpF-13" target="Ul13ssPY8gjsLb9pURpF-18">
          <mxGeometry relative="1" as="geometry">
            <mxPoint x="420" y="750" as="targetPoint" />
          </mxGeometry>
        </mxCell>
        <mxCell id="Ul13ssPY8gjsLb9pURpF-13" value="Microproceesor" style="rounded=1;whiteSpace=wrap;html=1;" vertex="1" parent="1">
          <mxGeometry x="360" y="630" width="120" height="60" as="geometry" />
        </mxCell>
        <mxCell id="Ul13ssPY8gjsLb9pURpF-15" value="Data stored in Memory" style="shape=partialRectangle;whiteSpace=wrap;html=1;left=0;right=0;fillColor=none;" vertex="1" parent="1">
          <mxGeometry x="360" y="850" width="120" height="60" as="geometry" />
        </mxCell>
        <mxCell id="Ul13ssPY8gjsLb9pURpF-19" value="data is proccessed and ready" style="edgeStyle=orthogonalEdgeStyle;rounded=0;orthogonalLoop=1;jettySize=auto;html=1;exitX=0.5;exitY=1;exitDx=0;exitDy=0;entryX=0.5;entryY=0;entryDx=0;entryDy=0;" edge="1" parent="1" source="Ul13ssPY8gjsLb9pURpF-18" target="Ul13ssPY8gjsLb9pURpF-15">
          <mxGeometry relative="1" as="geometry" />
        </mxCell>
        <mxCell id="Ul13ssPY8gjsLb9pURpF-21" value="Display results on Screen" style="edgeStyle=orthogonalEdgeStyle;rounded=0;orthogonalLoop=1;jettySize=auto;html=1;exitX=1;exitY=0.5;exitDx=0;exitDy=0;" edge="1" parent="1" source="Ul13ssPY8gjsLb9pURpF-18">
          <mxGeometry relative="1" as="geometry">
            <mxPoint x="660" y="840" as="targetPoint" />
          </mxGeometry>
        </mxCell>
        <mxCell id="Ul13ssPY8gjsLb9pURpF-18" value="culculations made on data" style="rounded=1;whiteSpace=wrap;html=1;" vertex="1" parent="1">
          <mxGeometry x="360" y="740" width="120" height="60" as="geometry" />
        </mxCell>
        <mxCell id="Ul13ssPY8gjsLb9pURpF-23" value="Display Data" style="whiteSpace=wrap;html=1;aspect=fixed;" vertex="1" parent="1">
          <mxGeometry x="620" y="840" width="80" height="80" as="geometry" />
        </mxCell>
        <mxCell id="Ul13ssPY8gjsLb9pURpF-25" style="edgeStyle=orthogonalEdgeStyle;rounded=0;orthogonalLoop=1;jettySize=auto;html=1;exitX=0.5;exitY=1;exitDx=0;exitDy=0;entryX=0.5;entryY=0;entryDx=0;entryDy=0;" edge="1" parent="1" source="Ul13ssPY8gjsLb9pURpF-24" target="Ul13ssPY8gjsLb9pURpF-13">
          <mxGeometry relative="1" as="geometry" />
        </mxCell>
        <mxCell id="Ul13ssPY8gjsLb9pURpF-24" value="Data intery" style="rounded=1;whiteSpace=wrap;html=1;" vertex="1" parent="1">
          <mxGeometry x="365" y="480" width="120" height="60" as="geometry" />
        </mxCell>
        <mxCell id="Ul13ssPY8gjsLb9pURpF-27" value="input of all data detection" style="endArrow=classic;html=1;rounded=0;entryX=0.5;entryY=0;entryDx=0;entryDy=0;" edge="1" parent="1" target="Ul13ssPY8gjsLb9pURpF-24">
          <mxGeometry relative="1" as="geometry">
            <mxPoint x="420" y="410" as="sourcePoint" />
            <mxPoint x="520" y="580" as="targetPoint" />
          </mxGeometry>
        </mxCell>
      </root>
    </mxGraphModel>
  </diagram>
</mxfile>
